# Blender 4.2.3 LTS
# www.blender.org
mtllib help_point.mtl
o Cube
v -0.392000 4.106250 -0.362000
v -0.392000 4.106250 0.362000
v -0.392000 -0.006250 -0.362000
v -0.392000 -0.006250 0.362000
v 0.392000 4.106250 -0.075300
v 0.158032 4.106250 -0.229340
v 0.352762 4.106250 -0.172898
v 0.158032 4.106250 0.229340
v 0.392000 4.106250 0.075300
v 0.352762 4.106250 0.172898
v 0.158033 -0.006250 -0.229340
v 0.392000 -0.006250 -0.075300
v 0.352762 -0.006250 -0.172898
v 0.392000 -0.006250 0.075300
v 0.158033 -0.006250 0.229340
v 0.352762 -0.006250 0.172898
v 0.158032 1.750000 -0.229340
v 0.352762 1.550000 -0.172898
v 0.392000 1.500000 -0.075300
v 0.158032 1.750000 0.229340
v 0.352762 1.550000 0.172898
v 0.392000 1.500000 0.075300
v 0.158032 2.372500 -0.229340
v 0.352762 2.572500 0.172898
v 0.392000 2.622500 0.075300
v 0.352762 2.572500 -0.172898
v 0.392000 2.622500 -0.075300
v 0.158032 2.372500 0.229340
v -0.392000 -0.006250 0.362000
v -0.392000 -0.006250 -0.362000
v 0.352762 -0.006250 -0.172898
v 0.392000 -0.006250 -0.075300
v 0.352762 -0.006250 0.172898
v 0.392000 -0.006250 0.075300
v -0.392000 -0.006250 0.362000
v -0.392000 -0.006250 -0.362000
v 0.352762 -0.006250 -0.172898
v 0.392000 -0.006250 -0.075300
v 0.352762 -0.006250 0.172898
v 0.392000 -0.006250 0.075300
v -0.392000 4.106250 0.362000
v -0.392000 -0.006250 0.362000
v -0.392000 -0.006250 0.362000
v -0.392000 -0.006250 -0.362000
v 0.352762 -0.006250 -0.172898
v 0.392000 -0.006250 -0.075300
v 0.352762 -0.006250 0.172898
v 0.392000 -0.006250 0.075300
v -0.392000 4.106250 0.362000
v -0.392000 -0.006250 0.362000
v -0.392000 -0.006250 0.362000
v -0.392000 -0.006250 -0.362000
v 0.352762 -0.006250 -0.172898
v 0.392000 -0.006250 -0.075300
v 0.352762 -0.006250 0.172898
v 0.392000 -0.006250 0.075300
v -0.392000 2.399562 0.362000
v -0.392000 2.399562 -0.362000
v -0.392000 2.399562 0.362000
v -0.392000 2.399562 0.362000
v -0.392000 1.196656 0.362000
v -0.392000 1.196656 0.362000
v -0.392000 1.196656 0.362000
vn 1.0000 -0.0000 -0.0000
vn 0.2345 -0.0000 -0.9721
vn -0.0000 1.0000 -0.0000
vn 0.2784 -0.0000 -0.9605
vn 0.9278 -0.0000 -0.3730
vn 0.2784 -0.0000 0.9605
vn 0.9278 -0.0000 0.3730
vn -1.0000 -0.0000 -0.0000
vn 0.7256 -0.6881 -0.0000
vn 0.7256 0.6881 -0.0000
vn -0.0000 -0.0000 1.0000
vn -0.0000 -1.0000 -0.0000
vn 0.2345 -0.0000 0.9721
vt 0.680437 1.291828
vt 0.319563 1.291828
vt 0.319563 -1.398617
vt 0.680437 -1.398617
vt 1.049555 2.850278
vt 1.049555 1.738375
vt 1.049555 -1.398617
vt 1.367441 -1.398617
vt 1.367441 2.898617
vt 0.375000 0.000000
vt 0.625000 0.000000
vt 0.625000 0.207281
vt 0.604607 0.237488
vt 0.546597 0.250000
vt 0.453403 0.250000
vt 0.395393 0.237488
vt 0.375000 0.207281
vt 0.816768 -0.480561
vt 0.816768 1.108514
vt 0.738810 1.108514
vt 0.738810 -0.300096
vt 0.604005 1.108514
vt 0.604005 -0.255755
vt -0.049556 1.738375
vt -0.049556 -1.398617
vt 0.085693 -1.398617
vt 0.085693 1.381138
vt 0.625000 0.896250
vt 0.625000 1.000000
vt 0.375000 1.000000
vt 0.375000 0.896250
vt 0.914307 -1.398617
vt 0.914307 1.381138
vt 0.989988 0.567259
vt 0.869431 0.811078
vt 0.660906 0.959046
vt 0.339173 0.959046
vt 0.130648 0.811078
vt 0.010091 0.567259
vt 0.395994 1.108514
vt 0.395994 -0.255755
vt 0.183232 1.108514
vt 0.183232 -0.480561
vt 0.261190 -0.300096
vt 0.261190 1.108514
vt 0.404271 0.067698
vt 0.603869 0.067698
vt 0.805609 0.132664
vt 0.904015 0.391287
vt 0.104126 0.391287
vt 0.202531 0.132664
vt 0.000000 1.341172
vt 0.000000 -0.250000
vt 1.000000 -0.250000
vt 1.000000 1.341172
vt 0.453403 0.500000
vt 0.546597 0.500000
vt 0.375000 0.500000
vt 0.375000 0.001063
vt 0.395393 0.013575
vt 0.453403 0.001063
vt 0.546597 0.001063
vt 0.625000 0.001063
vt 0.625000 0.018392
vt 0.625000 0.023036
vt 0.375000 0.023036
vt 0.375000 0.018392
vt 0.625000 0.500000
vt 0.625000 0.750000
vt 0.375000 0.750000
vt -0.390943 0.750000
vt -0.390943 -1.398617
vt 0.000000 -0.443249
vt 0.000000 1.108514
vt 0.771250 0.750000
vt -0.367441 -1.398617
vt -0.049556 2.850278
vt -0.367441 2.898617
vt -0.367441 0.750000
vt 1.000000 -0.443249
vt 1.000000 1.108514
vt -0.390943 2.898617
vt 0.625000 0.823125
vt 0.625000 -0.025065
vt 0.625000 0.048060
vt 0.625000 0.121185
vt 0.375000 0.121185
vt 0.375000 -0.025065
s 0
usemtl Station_Interface_1
f 28/52/1 20/53/1 17/54/1 23/55/1
usemtl Station_Interface_2
f 23/34/9 26/35/9 27/36/9 25/37/9 24/38/9 28/39/9
f 22/46/10 19/47/10 18/48/10 17/49/10 20/50/10 21/51/10
usemtl LED
f 23/18/4 6/19/4 7/20/4 26/21/4
f 26/21/5 7/20/5 5/22/5 27/23/5
f 5/22/1 9/40/1 25/41/1 27/23/1
f 8/42/6 28/43/6 24/44/6 10/45/6
f 10/45/7 24/44/7 25/41/7 9/40/7
f 60/73/13 28/43/13 8/42/13 2/74/13 41/74/13 49/74/13
f 6/19/2 23/18/2 58/80/2 1/81/2
usemtl Base
f 19/1/1 22/2/1 14/3/1 12/4/1
f 23/5/2 17/6/2 11/7/2 3/8/2 58/9/2
f 1/10/3 2/11/3 8/12/3 10/13/3 9/14/3 5/15/3 7/16/3 6/17/3
f 20/24/6 15/25/6 16/26/6 21/27/6
f 21/27/7 16/26/7 14/3/7 22/2/7
f 57/28/8 2/29/8 1/30/8 58/31/8
f 13/32/5 18/33/5 19/1/5 12/4/5
f 11/7/4 17/6/4 18/33/4 13/32/4
f 32/56/11 34/57/11 40/57/11 38/56/11
f 13/58/11 12/56/11 32/56/11 31/58/11
f 45/59/12 53/60/12 54/61/12 56/62/12 55/63/12 47/63/12 39/63/12 33/63/12 16/63/12 15/64/12 4/65/12 29/65/12 35/65/12 43/65/12 51/65/12 52/66/12 44/66/12 36/66/12 30/66/12 3/66/12 11/67/12 13/59/12 31/59/12 37/59/12
f 12/56/11 14/57/11 34/57/11 32/56/11
f 14/57/11 16/68/11 33/68/11 34/57/11
f 4/69/11 3/70/11 30/70/11 29/69/11
f 38/56/11 40/57/11 48/57/11 46/56/11
f 34/57/11 33/68/11 39/68/11 40/57/11
f 31/58/11 32/56/11 38/56/11 37/58/11
f 29/69/11 30/70/11 36/70/11 35/69/11
f 46/56/11 48/57/11 56/57/11 54/56/11
f 35/69/11 36/70/11 44/70/11 43/69/11
f 61/71/11 4/72/11 42/72/11 62/71/11
f 37/58/11 38/56/11 46/56/11 45/58/11
f 40/57/11 39/68/11 47/68/11 48/57/11
f 43/69/11 44/70/11 52/70/11 51/69/11
f 45/58/11 46/56/11 54/56/11 53/58/11
f 48/57/11 47/68/11 55/68/11 56/57/11
f 62/71/11 42/72/11 50/72/11 63/71/11
f 41/11/11 59/75/11 60/75/11 49/11/11
f 2/11/11 57/75/11 59/75/11 41/11/11
f 50/76/13 42/76/13 4/76/13 15/25/13 20/24/13 28/77/13 60/78/13 63/79/13
f 59/82/11 62/71/11 63/71/11 60/82/11
f 57/28/11 61/83/11 62/83/11 59/28/11
f 4/84/8 61/85/8 57/86/8 58/87/8 3/88/8
